<svg xmlns="http://www.w3.org/2000/svg" viewBox="0 0 40 76" role="img" aria-label="Car (top view)">
  <ellipse cx="20" cy="39" rx="18" ry="36" fill="#000" opacity=".18"/>
  <rect x="3" y="14" width="3" height="10" rx="1.5" fill="#1a1a1a"/><rect x="34" y="14" width="3" height="10" rx="1.5" fill="#1a1a1a"/>
  <rect x="3" y="52" width="3" height="10" rx="1.5" fill="#1a1a1a"/><rect x="34" y="52" width="3" height="10" rx="1.5" fill="#1a1a1a"/>
  <path d="M8 10C8 4 13 2 20 2s12 2 12 8v56c0 6-5 8-12 8s-12-2-12-8z" fill="#d3132a"/>
  <path d="M10 8c2-3 5-4 10-4s8 1 10 4" fill="none" stroke="#ff6b7d" stroke-width="1.2"/>
  <rect x="9" y="3.5" width="5" height="3" rx="1.5" fill="#fff6c9"/><rect x="26" y="3.5" width="5" height="3" rx="1.5" fill="#fff6c9"/>
  <path d="M10.5 22c3-2.5 16-2.5 19 0l-2 8h-15z" fill="#1d2733"/>
  <rect x="12.5" y="30" width="15" height="20" rx="2" fill="#b30f23"/>
  <path d="M12.5 50h15l1.5 6c-3 2-15 2-18 0z" fill="#1d2733"/>
  <path d="M9.5 24l2 5v21l-2 4zM30.5 24l-2 5v21l2 4z" fill="#26313d"/>
  <rect x="5" y="23" width="4" height="3" rx="1" fill="#b30f23"/><rect x="31" y="23" width="4" height="3" rx="1" fill="#b30f23"/>
  <rect x="9.5" y="69.5" width="5" height="2.5" rx="1" fill="#6d0010"/><rect x="25.5" y="69.5" width="5" height="2.5" rx="1" fill="#6d0010"/>
</svg>
